<svg width="114" height="115" viewBox="0 0 114 115" fill="none" xmlns="http://www.w3.org/2000/svg">
<path d="M53.1003 90.2477L30.1003 77.9477H30.0003H29.9003C29.6003 77.8477 29.3003 77.3477 29.3003 77.1477V48.3477L39.6003 53.9477V60.6477L44.0003 62.7477V56.4477L53.2003 61.4477L53.1003 90.2477Z" fill="#061AB1"/>
<path d="M84.6002 77.9471L54.8002 90.2471C54.8002 90.2471 54.7002 90.2471 54.7002 90.3471V61.4471L85.3002 48.7471V77.0471C85.2002 77.3471 84.9002 77.8471 84.6002 77.9471Z" fill="#061AB1"/>
<path d="M84.5005 47.0475C84.7005 47.1475 84.7005 47.2475 84.9005 47.3475L54.0005 60.1475L44.5005 54.9475L75.4005 42.1475L84.5005 47.0475Z" fill="#061AB1"/>
<path d="M60.6001 34.6475C61.0001 34.6475 70.3001 39.5475 70.3001 39.5475L39.6001 52.2475L30.1001 47.0475C30.1001 47.0475 60.3001 34.6475 60.6001 34.6475Z" fill="#061AB1"/>
<path d="M87.7003 90.3469C95.9293 90.3469 102.6 83.6759 102.6 75.4469C102.6 67.2178 95.9293 60.5469 87.7003 60.5469C79.4713 60.5469 72.8003 67.2178 72.8003 75.4469C72.8003 83.6759 79.4713 90.3469 87.7003 90.3469Z" fill="#FFD100"/>
<path d="M83.5001 86.0469L76.1001 78.6469L78.5001 76.2469L83.4001 81.1469L96.9001 66.5469L99.3001 68.7469L83.5001 86.0469Z" fill="white"/>
</svg>
