<svg width="114" height="115" viewBox="0 0 114 115" fill="none" xmlns="http://www.w3.org/2000/svg">
<path d="M32.7031 88.2475H44.3031V82.1475H32.7031V88.2475Z" fill="#061AB1"/>
<path d="M45.2031 88.2475H56.8031V82.1475H45.2031V88.2475Z" fill="#061AB1"/>
<path d="M57.603 88.2475H69.203V82.1475H57.603V88.2475Z" fill="#061AB1"/>
<path d="M70.103 88.2475H81.703V82.1475H70.103V88.2475Z" fill="#061AB1"/>
<path d="M32.7031 81.2475H44.3031V75.1475H32.7031V81.2475Z" fill="#061AB1"/>
<path d="M45.2031 81.2475H56.8031V75.1475H45.2031V81.2475Z" fill="#061AB1"/>
<path d="M57.603 81.2475H69.203V75.1475H57.603V81.2475Z" fill="#061AB1"/>
<path d="M32.7031 74.3471H44.3031V68.2471H32.7031V74.3471Z" fill="#061AB1"/>
<path d="M45.2031 74.3471H56.8031V68.2471H45.2031V74.3471Z" fill="#061AB1"/>
<path d="M15.603 39.3471V90.1471H98.803V39.3471L57.003 34.7471L15.603 39.3471ZM91.703 88.9471H23.503V59.7471H91.603C91.703 59.7471 91.703 88.9471 91.703 88.9471Z" fill="#061AB1"/>
<path d="M76.314 54.9579C77.4076 54.9579 78.2941 54.0743 78.2941 52.9843C78.2941 51.8943 77.4076 51.0107 76.314 51.0107C75.2205 51.0107 74.334 51.8943 74.334 52.9843C74.334 54.0743 75.2205 54.9579 76.314 54.9579Z" fill="white"/>
<path d="M48.0951 48.5995V51.1817H50.2505C49.9356 51.6743 49.2255 51.9367 48.7441 51.9367C47.1217 51.9367 46.3105 51.015 46.3105 49.155C46.3105 47.1011 47.3812 46.0501 49.5067 46.0501C50.3504 46.0501 51.4539 46.2602 52.6381 46.6324V43.5436C52.2971 43.3981 51.7782 43.285 51.1129 43.1714C50.4315 43.0583 49.831 43.0098 49.3117 43.0098C47.2024 43.0098 45.5313 43.5759 44.2822 44.7077C43.0327 45.84 42.3999 47.3601 42.3999 49.2847C42.3999 51.0473 42.8868 52.4382 43.8602 53.4573C44.8336 54.4921 46.1479 55.0098 47.8028 55.0098C49.4645 55.0098 50.9913 54.1502 51.4834 53.0588L51.4727 54.8154H53.8765V48.5995H48.0951Z" fill="white"/>
<path d="M55.0767 54.8158V43.2041H58.8084V51.7916H62.8808V54.8158H55.0767Z" fill="white"/>
<path d="M64.2423 54.5245V51.3549C64.7941 51.5326 65.4431 51.6781 66.1733 51.8078C66.9034 51.9371 67.5363 52.0018 68.0718 52.0018C68.9803 52.0018 69.451 51.7755 69.451 51.371C69.451 51.1124 69.3051 50.9827 68.6398 50.8372L67.3417 50.5463C65.1188 50.0448 64.0806 48.9292 64.0806 47.0368C64.0806 45.7915 64.5188 44.8051 65.3787 44.0774C66.2377 43.3653 67.4385 43.0098 68.9475 43.0098C69.9857 43.0098 71.5761 43.2199 72.5495 43.4627V46.4869C72.0464 46.3576 71.4464 46.2283 70.7163 46.1147C69.9861 46.0016 69.4181 45.9531 68.9965 45.9531C68.2015 45.9531 67.7471 46.1794 67.7471 46.5839C67.7471 46.8263 67.9579 46.9884 68.3961 47.1015L69.9051 47.4571C72.1117 47.9747 73.1337 49.1065 73.1337 51.0312C73.1337 52.2604 72.6792 53.2306 71.7869 53.9422C70.8946 54.6538 69.6614 55.0093 68.0876 55.0093C66.5949 55.0093 65.086 54.7992 64.2423 54.5245Z" fill="white"/>
<path d="M87.2003 90.3469C95.4293 90.3469 102.1 83.6759 102.1 75.4469C102.1 67.2178 95.4293 60.5469 87.2003 60.5469C78.9713 60.5469 72.3003 67.2178 72.3003 75.4469C72.3003 83.6759 78.9713 90.3469 87.2003 90.3469Z" fill="#FFD100"/>
<path d="M82.9001 86.0473L75.6001 78.5473L78.0001 76.2473L82.8001 81.1473L96.3001 66.4473L98.8001 68.7473L82.9001 86.0473Z" fill="white"/>
</svg>
