<svg width="114" height="115" viewBox="0 0 114 115" fill="none" xmlns="http://www.w3.org/2000/svg">
<path d="M82.8999 40.3471H45.5999H44.1999L41.0999 35.7471H38.3999L52.6999 56.9471L30.3999 71.1471V73.8471V74.9471V82.5471H35.7999L39.5999 88.3471C40.4999 89.7471 42.0999 90.5471 43.6999 90.5471C44.6999 90.5471 45.5999 90.2471 46.3999 89.7471C46.5999 89.6471 46.6999 89.5471 46.7999 89.4471C47.6999 90.2471 48.7999 90.5471 49.9999 90.5471C50.9999 90.5471 51.8999 90.2471 52.6999 89.7471C52.8999 89.6471 52.9999 89.4471 53.0999 89.3471C53.9999 90.1471 55.0999 90.4471 56.2999 90.4471C57.2999 90.4471 58.1999 90.1471 58.9999 89.6471C59.1999 89.5471 59.2999 89.3471 59.3999 89.3471C60.2999 90.1471 61.3999 90.4471 62.5999 90.4471C63.5999 90.4471 64.4999 90.1471 65.2999 89.6471C66.3999 88.9471 67.0999 87.8471 67.3999 86.5471C67.6999 85.2471 67.3999 83.9471 66.6999 82.8471L66.3999 82.5471H82.5999V40.3471H82.8999ZM68.9999 66.0471C68.5999 67.0471 67.5999 67.5471 66.5999 67.5471L58.6999 67.4471C56.6999 67.4471 55.4999 69.6471 56.5999 71.2471L65.0999 84.0471C65.8999 85.2471 65.4999 86.9471 64.2999 87.7471C63.8999 88.0471 63.2999 88.1471 62.7999 88.1471C61.9999 88.1471 61.0999 87.7471 60.5999 86.9471L57.9999 82.8471L58.8999 86.5471C58.6999 86.9471 58.3999 87.3471 57.9999 87.6471C57.5999 87.9471 56.9999 88.0471 56.4999 88.0471C55.6999 88.0471 54.7999 87.6471 54.2999 86.8471L51.5999 82.7471L51.6999 82.8471L52.5999 86.5471C52.3999 86.9471 52.0999 87.3471 51.5999 87.6471C51.1999 87.9471 50.5999 88.0471 50.0999 88.0471C49.2999 88.0471 48.3999 87.6471 47.8999 86.8471L45.0999 82.6471L46.0999 86.5471C45.8999 86.9471 45.5999 87.3471 45.1999 87.5471C44.7999 87.8471 44.1999 87.9471 43.6999 87.9471C42.7999 87.9471 41.9999 87.5471 41.4999 86.7471L35.6999 77.8471C34.3999 75.9471 33.8999 73.0471 34.3999 70.9471L51.2999 60.2471C52.2999 60.3471 53.2999 60.6471 54.2999 61.0471C55.5999 61.6471 57.0999 61.8471 58.5999 61.8471L66.6999 61.9471C68.3999 62.2471 69.7999 64.1471 68.9999 66.0471Z" fill="#061AB1"/>
<path d="M87.4 90.3469C95.629 90.3469 102.3 83.6759 102.3 75.4469C102.3 67.2178 95.629 60.5469 87.4 60.5469C79.171 60.5469 72.5 67.2178 72.5 75.4469C72.5 83.6759 79.171 90.3469 87.4 90.3469Z" fill="#FFD100"/>
<path d="M83.0998 86.0473L75.7998 78.5473L78.1998 76.2473L82.9998 81.1473L96.4998 66.4473L98.9998 68.7473L83.0998 86.0473Z" fill="white"/>
</svg>
