<svg width="114" height="115" viewBox="0 0 114 115" fill="none" xmlns="http://www.w3.org/2000/svg">
<g clip-path="url(#clip0)">
<path d="M108.278 60.6914L99.3547 43.9084C99.0517 43.3384 98.4587 42.9814 97.8127 42.9814H86.8677C85.9027 42.9814 85.1207 43.7644 85.1207 44.7284V74.4744H8.65166C7.98866 74.4744 7.45166 75.0134 7.45166 75.6754V81.6164C7.45166 82.2804 7.98866 82.8174 8.65166 82.8174H14.6037C14.8997 78.6864 18.3467 75.4134 22.5517 75.4134C26.7567 75.4134 30.2037 78.6864 30.4997 82.8174H35.2177C35.5137 78.6864 38.9617 75.4134 43.1657 75.4134C47.3717 75.4134 50.8177 78.6864 51.1147 82.8174H86.8667H87.9717H87.9787C88.3387 78.7514 91.7607 75.5494 95.9207 75.5494C100.079 75.5494 103.501 78.7504 103.862 82.8174H103.869H104.332H106.733C107.698 82.8174 108.48 82.0344 108.48 81.0694V61.5114C108.483 61.2264 108.413 60.9434 108.278 60.6914ZM88.6137 46.4754H96.7617L104.989 61.9474V65.0544H88.6137V46.4754Z" fill="#061AB1"/>
<path d="M22.5526 90.366C26.4042 90.366 29.5266 87.2436 29.5266 83.392C29.5266 79.5403 26.4042 76.418 22.5526 76.418C18.701 76.418 15.5786 79.5403 15.5786 83.392C15.5786 87.2436 18.701 90.366 22.5526 90.366Z" fill="#061AB1"/>
<path d="M43.1669 90.366C47.0185 90.366 50.1409 87.2436 50.1409 83.392C50.1409 79.5403 47.0185 76.418 43.1669 76.418C39.3152 76.418 36.1929 79.5403 36.1929 83.392C36.1929 87.2436 39.3152 90.366 43.1669 90.366Z" fill="#061AB1"/>
<path d="M95.9218 90.366C99.7734 90.366 102.896 87.2436 102.896 83.392C102.896 79.5403 99.7734 76.418 95.9218 76.418C92.0701 76.418 88.9478 79.5403 88.9478 83.392C88.9478 87.2436 92.0701 90.366 95.9218 90.366Z" fill="#061AB1"/>
<path d="M80.7668 41.9141H9.41875C8.20375 41.9141 7.21875 42.8981 7.21875 44.1141V70.9111C7.21875 72.1261 8.20375 73.1121 9.41875 73.1121H80.7668C81.9818 73.1121 82.9668 72.1261 82.9668 70.9111V44.1141C82.9668 42.8991 81.9818 41.9141 80.7668 41.9141Z" fill="#061AB1"/>
<path d="M61.9278 63.9579C63.0213 63.9579 63.9078 63.0743 63.9078 61.9843C63.9078 60.8943 63.0213 60.0107 61.9278 60.0107C60.8342 60.0107 59.9478 60.8943 59.9478 61.9843C59.9478 63.0743 60.8342 63.9579 61.9278 63.9579Z" fill="white"/>
<path d="M33.7089 57.5995V60.1817H35.8643C35.5494 60.6743 34.8393 60.9367 34.3579 60.9367C32.7355 60.9367 31.9243 60.015 31.9243 58.155C31.9243 56.1011 32.9949 55.0501 35.1205 55.0501C35.9641 55.0501 37.0677 55.2602 38.2519 55.6324V52.5436C37.9109 52.3981 37.392 52.285 36.7267 52.1714C36.0452 52.0583 35.4448 52.0098 34.9255 52.0098C32.8161 52.0098 31.145 52.5759 29.896 53.7077C28.6465 54.84 28.0137 56.3601 28.0137 58.2847C28.0137 60.0473 28.5006 61.4382 29.474 62.4573C30.4473 63.4921 31.7617 64.0098 33.4165 64.0098C35.0782 64.0098 36.6051 63.1502 37.0971 62.0588L37.0865 63.8154H39.4902V57.5995H33.7089Z" fill="white"/>
<path d="M40.6904 63.8158V52.2041H44.4222V60.7916H48.4945V63.8158H40.6904Z" fill="white"/>
<path d="M49.8561 63.5245V60.3549C50.4078 60.5326 51.0569 60.6781 51.787 60.8078C52.5172 60.9371 53.15 61.0018 53.6856 61.0018C54.5941 61.0018 55.0648 60.7755 55.0648 60.371C55.0648 60.1124 54.9188 59.9827 54.2536 59.8372L52.9554 59.5463C50.7326 59.0448 49.6943 57.9292 49.6943 56.0368C49.6943 54.7915 50.1326 53.8051 50.9925 53.0774C51.8515 52.3653 53.0523 52.0098 54.5612 52.0098C55.5995 52.0098 57.1899 52.2199 58.1633 52.4627V55.4869C57.6602 55.3576 57.0602 55.2283 56.33 55.1147C55.5999 55.0016 55.0319 54.9531 54.6103 54.9531C53.8153 54.9531 53.3608 55.1794 53.3608 55.5839C53.3608 55.8263 53.5716 55.9884 54.0099 56.1015L55.5188 56.4571C57.7255 56.9747 58.7475 58.1065 58.7475 60.0312C58.7475 61.2604 58.293 62.2306 57.4007 62.9422C56.5084 63.6538 55.2752 64.0093 53.7014 64.0093C52.2086 64.0093 50.6997 63.7992 49.8561 63.5245Z" fill="white"/>
<path d="M87.4 90.3469C95.629 90.3469 102.3 83.6759 102.3 75.4469C102.3 67.2178 95.629 60.5469 87.4 60.5469C79.171 60.5469 72.5 67.2178 72.5 75.4469C72.5 83.6759 79.171 90.3469 87.4 90.3469Z" fill="#FFD100"/>
<path d="M83.0998 86.0473L75.7998 78.5473L78.1998 76.2473L82.9998 81.1473L96.4998 66.4473L98.9998 68.7473L83.0998 86.0473Z" fill="white"/>
</g>
<defs>
<clipPath id="clip0">
<rect width="113.4" height="113.4" fill="white" transform="translate(0 0.74707)"/>
</clipPath>
</defs>
</svg>
