<?xml version="1.0" encoding="utf-8"?>
<!-- Generator: Adobe Illustrator 25.3.1, SVG Export Plug-In . SVG Version: 6.00 Build 0)  -->
<svg version="1.1" id="Layer_1" xmlns="http://www.w3.org/2000/svg" xmlns:xlink="http://www.w3.org/1999/xlink" x="0px" y="0px"
	 viewBox="0 0 113.7 113.7" style="enable-background:new 0 0 113.7 113.7;" xml:space="preserve">
<style type="text/css">
	.st0{fill:#061AB1;}
	.st1{fill:#FFFFFF;}
	.st2{fill-rule:evenodd;clip-rule:evenodd;fill:#FFD100;}
	.st3{fill-rule:evenodd;clip-rule:evenodd;fill:#061AB1;}
	.st4{fill:none;stroke:#061AB1;stroke-width:1.5;stroke-linecap:square;stroke-linejoin:round;stroke-miterlimit:10;}
	.st5{fill:none;stroke:#061AB1;stroke-width:1.5;stroke-miterlimit:10;}
	.st6{fill:none;stroke:#061AB1;stroke-width:1.5;stroke-linecap:square;stroke-miterlimit:10;}
	.st7{clip-path:url(#SVGID_2_);}
	.st8{clip-path:url(#SVGID_4_);}
	.st9{clip-path:url(#SVGID_6_);}
	.st10{clip-path:url(#SVGID_8_);}
	.st11{clip-path:url(#SVGID_10_);}
	.st12{clip-path:url(#SVGID_12_);}
	.st13{clip-path:url(#SVGID_14_);}
	.st14{clip-path:url(#SVGID_16_);}
	.st15{clip-path:url(#SVGID_18_);}
	.st16{clip-path:url(#SVGID_20_);}
	.st17{clip-path:url(#SVGID_22_);}
	.st18{clip-path:url(#SVGID_24_);}
	.st19{clip-path:url(#SVGID_26_);}
	.st20{clip-path:url(#SVGID_28_);}
	.st21{clip-path:url(#SVGID_30_);}
	.st22{clip-path:url(#SVGID_32_);}
	.st23{fill:#FFD100;}
	.st24{clip-path:url(#SVGID_34_);}
	.st25{clip-path:url(#SVGID_36_);}
	.st26{clip-path:url(#SVGID_38_);}
	.st27{clip-path:url(#SVGID_40_);}
	.st28{clip-path:url(#SVGID_42_);}
	.st29{clip-path:url(#SVGID_44_);}
	.st30{clip-path:url(#SVGID_46_);}
	.st31{clip-path:url(#SVGID_48_);}
	.st32{clip-path:url(#SVGID_50_);}
	.st33{clip-path:url(#SVGID_52_);}
	.st34{clip-path:url(#SVGID_54_);}
	.st35{clip-path:url(#SVGID_56_);}
	.st36{clip-path:url(#SVGID_58_);}
	.st37{clip-path:url(#SVGID_60_);}
	.st38{fill-rule:evenodd;clip-rule:evenodd;fill:#FFFFFF;}
	.st39{clip-path:url(#SVGID_62_);}
	.st40{clip-path:url(#SVGID_64_);}
	.st41{fill:none;stroke:#FFFFFF;stroke-width:8.5039;stroke-miterlimit:10;}
	.st42{clip-path:url(#SVGID_66_);}
	.st43{clip-path:url(#SVGID_68_);}
	.st44{fill:#061AB1;stroke:#061AB1;stroke-width:3.508;stroke-miterlimit:10;}
	.st45{fill:none;stroke:#061AB1;stroke-width:2.5726;stroke-linecap:round;stroke-miterlimit:10;}
	.st46{clip-path:url(#SVGID_70_);}
	.st47{clip-path:url(#SVGID_72_);}
	.st48{clip-path:url(#SVGID_74_);}
	.st49{clip-path:url(#SVGID_76_);}
	.st50{clip-path:url(#SVGID_78_);}
	.st51{clip-path:url(#SVGID_80_);}
	.st52{clip-path:url(#SVGID_82_);}
	.st53{clip-path:url(#SVGID_84_);}
	.st54{clip-path:url(#SVGID_86_);}
	.st55{clip-path:url(#SVGID_88_);}
	.st56{clip-path:url(#SVGID_90_);}
	.st57{fill:none;}
	.st58{clip-path:url(#SVGID_92_);}
	.st59{fill:none;stroke:#061AB1;stroke-width:0.25;stroke-miterlimit:10;}
	.st60{fill:none;stroke:#061AB1;stroke-miterlimit:10;}
	.st61{fill:none;stroke:#061AB1;stroke-width:2.8347;stroke-miterlimit:10;}
	.st62{fill:none;stroke:#061AB1;stroke-width:1.75;stroke-miterlimit:10;}
</style>
<g>
	<path class="st0" d="M47.4,84.2l-23-12.3h-0.1h-0.1c-0.3-0.1-0.6-0.6-0.6-0.8V42.3l10.3,5.6v6.7l4.4,2.1v-6.3l9.2,5L47.4,84.2z"/>
	<path class="st0" d="M78.8,41.1c0.2,0.1,0.2,0.2,0.4,0.3L48.3,54.2L38.8,49l30.9-12.8L78.8,41.1z"/>
	<path class="st0" d="M54.9,28.7c0.4,0,9.7,4.9,9.7,4.9L33.9,46.3l-9.5-5.2C24.4,41.1,54.6,28.7,54.9,28.7z"/>
	<path class="st0" d="M58,69.4c0-9,7.4-16.4,16.4-16.4c1.8,0,3.5,0.3,5.2,0.8V42.7L49,55.4v28.9c0.1-0.1,0.1-0.1,0.1-0.1l12.2-5
		C59.2,76.6,58,73.2,58,69.4z"/>
	<path class="st0" d="M74.7,54.2c-8.5,0-15.4,6.9-15.4,15.4S66.2,85,74.7,85s15.4-6.9,15.4-15.4S83.2,54.2,74.7,54.2z M74.7,83.9
		c-7.9,0-14.4-6.5-14.4-14.4s6.5-14.4,14.4-14.4s14.4,6.5,14.4,14.4S82.6,83.9,74.7,83.9z"/>
	<path class="st0" d="M83.5,62.2l-1.4-1.5l-7.4,7.5l-7.4-7.5l-1.5,1.5l7.5,7.4L65.8,77l1.5,1.4l7.4-7.4l7.4,7.4l1.4-1.4l-7.4-7.4
		L83.5,62.2z"/>
</g>
</svg>
