<svg width="115" height="115" viewBox="0 0 115 115" fill="none" xmlns="http://www.w3.org/2000/svg">
<path d="M27.0996 85.3471H87.7996C88.5996 85.3471 89.2996 84.4471 89.2996 83.2471V42.3471C89.2996 41.2471 88.5996 40.2471 87.7996 40.2471H27.0996C26.2996 40.2471 25.5996 41.1471 25.5996 42.3471V83.2471C25.6996 84.3471 26.3996 85.3471 27.0996 85.3471ZM28.1996 42.8471H86.8996V82.8471H28.1996V42.8471Z" fill="#061AB1"/>
<path d="M100.2 88.4475V86.1475H14.8998L14.7998 88.4475V88.5475C14.8998 88.8475 15.2998 89.5475 18.0998 90.2475H96.7998C96.7998 90.1475 99.4998 89.7475 100.2 88.4475ZM63.0998 87.4475C62.7998 87.8475 62.2998 87.7475 62.2998 87.7475H52.3998C52.0998 87.7475 51.7998 87.5475 51.6998 87.4475C51.3998 87.1475 51.4998 86.5475 51.4998 86.5475H51.7998H63.2998H63.3998C63.3998 87.0475 63.2998 87.2475 63.0998 87.4475Z" fill="#061AB1"/>
<path d="M88.1998 90.3469C96.4288 90.3469 103.1 83.6759 103.1 75.4469C103.1 67.2178 96.4288 60.5469 88.1998 60.5469C79.9708 60.5469 73.2998 67.2178 73.2998 75.4469C73.2998 83.6759 79.9708 90.3469 88.1998 90.3469Z" fill="#FFD100"/>
<path d="M83.9996 86.0469L76.5996 78.6469L78.9996 76.2469L83.8996 81.1469L97.3996 66.5469L99.7996 68.7469L83.9996 86.0469Z" fill="white"/>
</svg>
